<?xml version="1.0" encoding="utf-8"?>
<!-- Svg Vector Icons : http://www.onlinewebfonts.com/icon -->
<!DOCTYPE svg PUBLIC "-//W3C//DTD SVG 1.1//EN" "http://www.w3.org/Graphics/SVG/1.1/DTD/svg11.dtd">
<svg version="1.1" xmlns="http://www.w3.org/2000/svg" xmlns:xlink="http://www.w3.org/1999/xlink" x="0px" y="0px" viewBox="0 0 256 256" enable-background="new 0 0 256 256" xml:space="preserve">
<metadata> Svg Vector Icons : http://www.onlinewebfonts.com/icon </metadata>
<g><g><g><path fill="#ffffff" d="M145.7,10.3c-11.8,1.9-21.6,7.3-27.6,15.2l-1.2,1.7l-2.9-0.9c-2.3-0.7-4.5-0.9-10-0.8c-6.4,0-7.6,0.1-11.1,1.3c-5.6,1.9-9.8,4.4-14.3,9c-6.4,6.3-8.9,12.5-8.4,20.5c0.3,4.2,0.2,4.3-0.8,4.3c-2.3,0-7.1,1.6-11.6,3.7c-3.7,1.8-5.4,3.1-8.4,6.1C37,82.6,37.5,100,50.6,110.9c3.7,3.1,11.7,7,16.5,8.1l3.8,0.9v14.4v14.4h56.6h56.6V134v-14.6l3.3-0.9c13.5-3.5,24.8-14.7,27.4-27.2c3.1-14.5-5.1-29.5-20.1-36.6l-3.8-1.8l0.3-2.2c0.6-3.7,0.3-10.9-0.5-14c-4.4-15-19.5-25.9-37.2-26.6C150.8,9.9,147.2,10,145.7,10.3z M116,48.4c1.7,0.7,3.2,2.9,3.2,4.8c0,0.6-0.4,1.8-1,2.7c-1.2,2-3.2,2.6-6.9,2c-5.8-0.8-8.9,0.5-10.6,4.3c-1.2,2.9-3,4.2-5.5,4.2c-3,0-5.4-3.3-4.6-6.5c1.4-6,6.2-10.5,12.9-12.1C106.6,47.1,113.7,47.5,116,48.4z"/><path fill="#ffffff" d="M70.9,170.2c0,9.9,0.1,11.5,0.9,13.3c1.8,3.9-2.9,3.6,56.2,3.6h52.8l1.1-1c1.7-1.6,2.2-5,2.2-16.4V159h-56.6H70.9V170.2z"/><path fill="#ffffff" d="M102,200.4c-5,1.3-8.9,3.3-14.6,7.4c-5.5,3.9-11.4,6.9-15.6,7.8c-4.3,0.9-10.4,0.4-14.2-1.2c-3.7-1.6-5.4-1.4-7.2,0.8c-1.6,1.8-1.6,3.7-0.1,7.4c2,4.9,4.3,8.3,8.4,12.4c4.5,4.5,8,6.7,13.6,8.7c5.8,2,11.5,2.6,18.7,1.9c12.8-1.3,24-5.2,33.4-11.5l3.5-2.4l3.6,2.4c9.1,6.2,20,9.9,32.6,11.4c17.8,2.1,33-5.8,40.4-20.9c2.6-5.3,2.8-7.3,0.9-9.5c-1.8-2.2-3.5-2.4-7.2-0.8c-3.8,1.6-9.9,2.1-14.2,1.2c-4.1-0.9-10-3.9-15.6-7.8c-5.8-4.2-9.7-6.1-14.8-7.4c-8.3-2.1-17.5-0.4-24.4,4.5l-1.4,1l-1.4-1C119.7,199.9,110.3,198.2,102,200.4z"/></g></g></g>
</svg>